<svg version="1.1" xmlns="http://www.w3.org/2000/svg" x="0" y="0" viewBox="0 0 50 50" xml:space="preserve"><title>stethoscope</title><g class="nc-icon-wrapper" fill="#3888d2"><g id="Layer_7"><circle fill="none" stroke="#3888d2" stroke-linecap="round" stroke-linejoin="round" cx="25.533" cy="44.924" r="3.586"/><circle fill="none" stroke="#3888d2" stroke-linecap="round" stroke-linejoin="round" cx="25.534" cy="44.924" r="1.647"/><path fill="none" stroke="#3888d2" stroke-linecap="round" stroke-linejoin="round" d="M22.572 20.183l2.961 4.301 2.959-4.301"/><path fill="none" stroke="#3888d2" stroke-linecap="round" stroke-linejoin="round" d="M25.486 24.436v3.053a2.517 2.517 0 0 1-2.52 2.517H15.87s-2.35-.191-2.35 2.278c0 2.568 2.35 2.275 2.35 2.275h18.428s2.18-.093 2.18 2.28-1.547 2.421-2.225 2.421h-6.588s-2.133.027-2.133 1.966"/><path fill="none" stroke="#3888d2" stroke-linecap="round" stroke-linejoin="round" d="M19.721 2.252c-1.641 0-2.324 1.114-1.887 2.971l2.324 11.784c.654 1.81 1.332 2.973 2.971 2.973h4.809c1.643 0 2.391-1.308 2.975-2.973l2.324-11.784c.531-1.857-.055-2.971-1.697-2.971"/><path fill="none" stroke="#3888d2" stroke-linecap="round" stroke-linejoin="round" d="M29.271 2.658c0 .224.184.406.408.406h1.164a.406.406 0 0 0 .408-.406v-.759a.408.408 0 0 0-.408-.407H29.68a.408.408 0 0 0-.408.407v.759z"/><path fill="none" stroke="#3888d2" stroke-linecap="round" stroke-linejoin="round" d="M20.1 2.658c0 .224.182.406.406.406h1.166a.407.407 0 0 0 .406-.406v-.759a.408.408 0 0 0-.406-.407h-1.166a.407.407 0 0 0-.406.407v.759z"/></g></g></svg>